<?xml version="1.0" encoding="utf-8"?>
<!-- Generator: Adobe Illustrator 16.0.0, SVG Export Plug-In . SVG Version: 6.00 Build 0)  -->
<!DOCTYPE svg PUBLIC "-//W3C//DTD SVG 1.1//EN" "http://www.w3.org/Graphics/SVG/1.1/DTD/svg11.dtd">
<svg version="1.1" id="maria" xmlns="http://www.w3.org/2000/svg" xmlns:xlink="http://www.w3.org/1999/xlink" x="0px" y="0px"
	 width="252.992px" height="252.625px" viewBox="652.004 129.687 252.992 252.625"
	 enable-background="new 652.004 129.687 252.992 252.625" xml:space="preserve">
<g>
	<path fill="#FFFFFF" d="M256,411c-85.467,0-155-69.532-155-155c0-85.467,69.533-155,155-155c85.468,0,155,69.533,155,155
		C411,341.468,341.468,411,256,411z"/>
	<path d="M256,106c82.843,0,150,67.157,150,150s-67.157,150-150,150s-150-67.157-150-150S173.157,106,256,106 M256,96
		c-42.738,0-82.917,16.643-113.137,46.863C112.643,173.083,96,213.262,96,256c0,42.736,16.643,82.917,46.863,113.137
		C173.083,399.357,213.262,416,256,416c42.737,0,82.917-16.643,113.137-46.863C399.357,338.917,416,298.736,416,256
		c0-42.738-16.643-82.917-46.863-113.137C338.917,112.643,298.737,96,256,96L256,96z"/>
</g>
<g>
	<circle cx="256" cy="255.818" r="128"/>
	<g>
		<g>
			<path fill="none" stroke="#FFFFFF" stroke-width="2.9316" stroke-miterlimit="10" d="M255.941,246.195
				c0,0-11.44,10.176-15.629,11.911c-4.192,1.734-15.959,6.566-23.888,7.062c-0.63,0.041-1.25,0.062-1.861,0.063
				c-7.064,0.041-12.677-2.186-14.613-3.78c-2.108-1.734-3.841-8.671-5.947-16.475c-2.106-7.804-3.964-12.264-4.087-13.999
				c-0.124-1.734-2.974-16.353-2.354-22.67c0.619-6.317,0.194-8.051-0.088-9.539c-0.284-1.487-0.585-7.185,0-10.034
				c0.584-2.85,3.432-16.725,4.05-18.707c0.621-1.982,5.823-13.502,8.177-16.104s12.955-9.786,21.839-11.892
				c8.883-2.106,22.634-0.868,26.101,0c3.472,0.865,19.08,8.051,22.425,11.148c3.344,3.098,12.014,12.637,13.131,30.228
				c1.113,17.591,0,17.467,0,17.467s0.988,0.143,1.609,2.177c0.616,2.034,0.868,7.113-0.619,9.714
				c-1.486,2.602-10.158,16.724-11.894,17.84c-1.733,1.114-4.705,2.725-4.586,3.592c0.127,0.865-2.226,27.251-0.862,30.224
				c1.361,2.973,16.229,25.893,23.782,29.361c7.557,3.469,37.783,24.775,39.146,25.518c1.36,0.744,4.209,1.982,4.088,6.814
				c-0.123,4.83-1.361,13.502-1.859,14.863c-0.496,1.362-8.547,13.256-10.406,14.989c-1.856,1.732-3.84,2.726-5.45,2.726
				c-1.609,0-21.431-3.094-24.031-3.344c-2.602-0.25-29.111-1.734-33.324-1.734c-4.21,0-21.927,1.363-25.272,1.984
				c-3.343,0.614-21.057-2.48-26.259-2.978c-5.204-0.496-10.533-5.451-13.752-6.812c-3.222-1.363-19.945-10.653-25.643-11.521
				c-5.699-0.865-5.574-2.603-5.574-2.603s1.98-10.162,4.583-15.733c2.601-5.572,11.398-15.854,14.493-16.599
				c3.096-0.744,20.563-7.434,23.042-9.416c2.477-1.979,9.911-6.688,10.157-8.428c0.249-1.729,0.125-6.686,0.372-8.916
				c0.249-2.229-0.123-6.318-0.123-6.318"/>
			<circle fill="none" stroke="#FFFFFF" stroke-width="2.9316" stroke-miterlimit="10" cx="255.545" cy="255.55" r="128.028"/>
		</g>
		<g>
			<circle fill="#FFFFFF" stroke="#FFFFFF" stroke-width="2.9316" stroke-miterlimit="10" cx="282.043" cy="175.165" r="3.737"/>
			<circle fill="#FFFFFF" stroke="#FFFFFF" stroke-width="2.9316" stroke-miterlimit="10" cx="284.736" cy="207.677" r="3.739"/>
			<circle fill="#FFFFFF" stroke="#FFFFFF" stroke-width="2.9316" stroke-miterlimit="10" cx="267.025" cy="244.994" r="3.74"/>
			<circle fill="#FFFFFF" stroke="#FFFFFF" stroke-width="2.9316" stroke-miterlimit="10" cx="326.533" cy="148.989" r="3.739"/>
			<circle fill="#FFFFFF" stroke="#FFFFFF" stroke-width="2.9316" stroke-miterlimit="10" cx="289.282" cy="131.793" r="3.738"/>
			<circle fill="#FFFFFF" stroke="#FFFFFF" stroke-width="2.9316" stroke-miterlimit="10" cx="267.025" cy="151.06" r="3.74"/>
			<circle fill="#FFFFFF" stroke="#FFFFFF" stroke-width="2.9316" stroke-miterlimit="10" cx="240.311" cy="140.588" r="3.739"/>
			<circle fill="#FFFFFF" stroke="#FFFFFF" stroke-width="2.9316" stroke-miterlimit="10" cx="240.311" cy="128.42" r="3.739"/>
			<circle fill="#FFFFFF" stroke="#FFFFFF" stroke-width="2.9316" stroke-miterlimit="10" cx="198.038" cy="156.354" r="3.739"/>
			<circle fill="#FFFFFF" stroke="#FFFFFF" stroke-width="2.9316" stroke-miterlimit="10" cx="187.192" cy="147.322" r="3.74"/>
			<circle fill="#FFFFFF" stroke="#FFFFFF" stroke-width="2.9316" stroke-miterlimit="10" cx="153.449" cy="177.723" r="3.739"/>
			<circle fill="#FFFFFF" stroke="#FFFFFF" stroke-width="2.9316" stroke-miterlimit="10" cx="131.839" cy="222.447" r="3.739"/>
			<circle fill="#FFFFFF" stroke="#FFFFFF" stroke-width="2.9316" stroke-miterlimit="10" cx="187.651" cy="191.201" r="3.74"/>
			<circle fill="#FFFFFF" stroke="#FFFFFF" stroke-width="2.9316" stroke-miterlimit="10" cx="129.019" cy="273.814" r="3.739"/>
			<circle fill="#FFFFFF" stroke="#FFFFFF" stroke-width="2.9316" stroke-miterlimit="10" cx="188.629" cy="222.447" r="3.739"/>
			<circle fill="#FFFFFF" stroke="#FFFFFF" stroke-width="2.9316" stroke-miterlimit="10" cx="199.948" cy="261.449" r="3.739"/>
			<circle fill="#FFFFFF" stroke="#FFFFFF" stroke-width="2.9316" stroke-miterlimit="10" cx="162.584" cy="330.574" r="3.739"/>
			<circle fill="#FFFFFF" stroke="#FFFFFF" stroke-width="2.9316" stroke-miterlimit="10" cx="201.384" cy="350.562" r="3.739"/>
			<circle fill="#FFFFFF" stroke="#FFFFFF" stroke-width="2.9316" stroke-miterlimit="10" cx="255.548" cy="354.129" r="3.738"/>
			<circle fill="#FFFFFF" stroke="#FFFFFF" stroke-width="2.9316" stroke-miterlimit="10" cx="318.938" cy="357.531" r="3.739"/>
			<path fill="#FFFFFF" stroke="#FFFFFF" stroke-width="2.9316" stroke-miterlimit="10" d="M360.292,334.227
				c0,2.064-1.676,3.74-3.74,3.74c-2.062,0-3.737-1.676-3.737-3.74c0-2.062,1.676-3.735,3.737-3.735
				C358.616,330.49,360.292,332.164,360.292,334.227z"/>
			<path fill="#FFFFFF" stroke="#FFFFFF" stroke-width="2.9316" stroke-miterlimit="10" d="M380.468,296.959
				c0,2.062-1.674,3.74-3.74,3.74c-2.063,0-3.735-1.678-3.735-3.74c0-2.064,1.672-3.738,3.735-3.738
				C378.794,293.221,380.468,294.895,380.468,296.959z"/>
			<circle fill="#FFFFFF" stroke="#FFFFFF" stroke-width="2.9316" stroke-miterlimit="10" cx="305.117" cy="302.619" r="3.737"/>
			<circle fill="#FFFFFF" stroke="#FFFFFF" stroke-width="2.9316" stroke-miterlimit="10" cx="379.242" cy="222.407" r="3.739"/>
			<circle fill="#FFFFFF" stroke="#FFFFFF" stroke-width="2.9316" stroke-miterlimit="10" cx="382.981" cy="261.449" r="3.738"/>
			<circle fill="#FFFFFF" stroke="#FFFFFF" stroke-width="2.9316" stroke-miterlimit="10" cx="275.729" cy="277.984" r="3.74"/>
			<circle fill="#FFFFFF" stroke="#FFFFFF" stroke-width="2.9316" stroke-miterlimit="10" cx="357.688" cy="178.903" r="3.739"/>
			<circle fill="#FFFFFF" stroke="#FFFFFF" stroke-width="2.9316" stroke-miterlimit="10" cx="187.192" cy="363.82" r="3.74"/>
			<path fill="#FFFFFF" stroke="#FFFFFF" stroke-width="2.9316" stroke-miterlimit="10" d="M259.286,383.578
				c0,2.062-1.675,3.74-3.739,3.74c-2.064,0-3.737-1.678-3.737-3.74c0-2.064,1.673-3.74,3.737-3.74
				C257.611,379.838,259.286,381.514,259.286,383.578z"/>
			<path fill="#FFFFFF" stroke="#FFFFFF" stroke-width="2.9316" stroke-miterlimit="10" d="M326.243,364.516
				c-0.08,2.062-1.814,3.672-3.881,3.592c-2.062-0.078-3.67-1.815-3.593-3.879c0.08-2.061,1.816-3.672,3.882-3.592
				C324.714,360.715,326.321,362.449,326.243,364.516z"/>
			<path fill="#FFFFFF" stroke="#FFFFFF" stroke-width="2.9316" stroke-miterlimit="10" d="M336.892,335.428
				c0,2.066-1.674,3.742-3.739,3.742c-2.062,0-3.736-1.676-3.736-3.742s1.674-3.738,3.736-3.738
				C335.218,331.689,336.892,333.361,336.892,335.428z"/>
			<path fill="#FFFFFF" stroke="#FFFFFF" stroke-width="2.9316" stroke-miterlimit="10" d="M158.279,334.227
				c0,2.064-1.674,3.74-3.738,3.74c-2.066,0-3.739-1.676-3.739-3.74c0-2.062,1.673-3.735,3.739-3.735
				C156.605,330.49,158.279,332.164,158.279,334.227z"/>
			<path fill="#FFFFFF" stroke="#FFFFFF" stroke-width="2.9316" stroke-miterlimit="10" d="M142.649,308.422
				c0,2.066-1.673,3.74-3.737,3.74c-2.066,0-3.74-1.674-3.74-3.74c0-2.062,1.674-3.736,3.74-3.736
				C140.976,304.686,142.649,306.359,142.649,308.422z"/>
			<circle fill="#FFFFFF" stroke="#FFFFFF" stroke-width="2.9316" stroke-miterlimit="10" cx="181.368" cy="299.789" r="3.739"/>
		</g>
		<g>
			
				<line fill="none" stroke="#FFFFFF" stroke-width="2.9316" stroke-miterlimit="10" x1="308.854" y1="302.619" x2="373.493" y2="297.75"/>
			
				<line fill="none" stroke="#FFFFFF" stroke-width="2.9316" stroke-miterlimit="10" x1="336.358" y1="334.885" x2="352.97" y2="334.885"/>
			
				<line fill="none" stroke="#FFFFFF" stroke-width="2.9316" stroke-miterlimit="10" x1="320.724" y1="360.293" x2="321.7" y2="362.244"/>
			
				<line fill="none" stroke="#FFFFFF" stroke-width="2.9316" stroke-miterlimit="10" x1="255.547" y1="357.869" x2="255.547" y2="379.838"/>
			
				<line fill="none" stroke="#FFFFFF" stroke-width="2.9316" stroke-miterlimit="10" x1="198.572" y1="353.453" x2="189.776" y2="361.27"/>
			
				<line fill="none" stroke="#FFFFFF" stroke-width="2.9316" stroke-miterlimit="10" x1="160.459" y1="331.953" x2="158.504" y2="332.932"/>
			
				<line fill="none" stroke="#FFFFFF" stroke-width="2.9316" stroke-miterlimit="10" x1="196.616" y1="262.57" x2="132.12" y2="273.32"/>
			
				<line fill="none" stroke="#FFFFFF" stroke-width="2.9316" stroke-miterlimit="10" x1="184.89" y1="222.447" x2="135.578" y2="222.447"/>
			
				<line fill="none" stroke="#FFFFFF" stroke-width="2.9316" stroke-miterlimit="10" x1="183.912" y1="190.256" x2="156.551" y2="179.507"/>
			
				<line fill="none" stroke="#FFFFFF" stroke-width="2.9316" stroke-miterlimit="10" x1="195.64" y1="155.076" x2="189.993" y2="148.989"/>
			
				<line fill="none" stroke="#FFFFFF" stroke-width="2.9316" stroke-miterlimit="10" x1="240.59" y1="137.487" x2="240.312" y2="132.16"/>
			
				<line fill="none" stroke="#FFFFFF" stroke-width="2.9316" stroke-miterlimit="10" x1="269.907" y1="148.237" x2="286.521" y2="134.555"/>
			
				<line fill="none" stroke="#FFFFFF" stroke-width="2.9316" stroke-miterlimit="10" x1="284.564" y1="173.644" x2="323.655" y2="151.168"/>
			
				<line fill="none" stroke="#FFFFFF" stroke-width="2.9316" stroke-miterlimit="10" x1="269.907" y1="244.003" x2="375.446" y2="223.481"/>
			
				<line fill="none" stroke="#FFFFFF" stroke-width="2.9316" stroke-miterlimit="10" x1="287.497" y1="206.869" x2="354.925" y2="180.485"/>
			
				<line fill="none" stroke="#FFFFFF" stroke-width="2.9316" stroke-miterlimit="10" x1="279.682" y1="277.229" x2="379.354" y2="262.57"/>
			
				<line fill="none" stroke="#FFFFFF" stroke-width="2.9316" stroke-miterlimit="10" x1="177.072" y1="300.684" x2="142.87" y2="307.521"/>
		</g>
		<path fill="none" stroke="#FFFFFF" stroke-width="2.2298" stroke-miterlimit="10" d="M138.097,303.373"/>
	</g>
</g>
<g>
	<path d="M780.195,247.16c-11.017,12.661-25.153,17.53-40.438,20.424c-0.188,3.859-0.607,7.505-0.474,11.13
		c0.132,3.535-1.275,5.848-3.935,8.058c-6.525,5.423-14.071,8.757-21.878,11.737c-1.521,0.581-3.298,1.801-3.91,3.188
		c-1.39,3.148-3.388,4.15-6.684,3.757c-1.239-0.147-3.008,0.357-3.841,1.229c-4.649,4.86-8.442,10.318-9.97,17.017
		c-0.268,1.173-0.137,2.561,0.216,3.726c0.603,1.984,1.526,3.872,2.03,5.102c9.292,4.507,18.104,8.791,26.93,13.047
		c1.019,0.49,2.367,1.44,3.133,1.127c5.14-2.104,7.421,0.688,8.804,4.741c13.532,2.687,26.861,4.267,40.343,1.809
		c1.339-0.244,2.767-0.818,3.82-1.657c3.172-2.525,5.029-2.595,8.396-0.173c0.998,0.717,2.266,1.437,3.434,1.479
		c15.811,0.564,31.594,1.354,47.206,4.166c1.597,0.288,3.163,0.512,4.173-1.6c1.039-2.174,3.226-2.523,5.575-2.466
		c1.116,0.027,2.681-0.483,3.308-1.309c2.498-3.288,4.707-6.796,6.912-10.059c-3.007-5.218-3.039-7.009-0.386-9.673
		c3.501-3.515,3.158-7.917-0.865-10.659c-5.501-3.751-11.042-7.443-16.521-11.226c-2.088-1.441-3.969-2.49-6.847-1.933
		c-3.372,0.652-5.075-0.712-5.543-4.138c-0.303-2.217-1.44-3.194-3.074-4.076c-6.932-3.741-13.363-8.064-18.224-14.468
		c-0.729-0.962-2.531-1.182-3.885-1.584c-2.698-0.804-4.896-2.577-4.249-5.302c0.831-3.495-0.766-5.779-2.498-8.159
		c-2.457-3.375-3.702-6.993-3.247-11.206c0.196-1.812,0.248-3.693-0.017-5.486c-0.222-1.498-0.74-3.093-1.586-4.333
		c-2.094-3.073-1.992-5.205,0.511-7.957c0.912-1.004,2.039-2.378,2.016-3.562c-0.068-3.452,1.362-5.621,4.307-7.208
		c1.114-0.602,2.065-1.708,2.797-2.784c3.168-4.663,6.228-9.399,9.235-13.972c-3.448-5.163-3.438-5.156-0.134-10.242
		c0.342-0.525,0.667-1.21,0.64-1.804c-0.258-5.602-0.628-11.198-0.891-16.8c-0.098-2.091-0.469-3.786-2.586-4.944
		c-2.615-1.429-3.333-4.307-1.804-6.438c2.039-2.841,0.987-4.983-0.287-7.286c-1.445-2.612-3.078-5.126-4.722-7.622
		c-1.026-1.561-2.059-2.723-4.478-2.004c-2.745,0.815-5.302-0.711-5.745-3.424c-0.474-2.897-2.24-3.807-4.39-4.741
		c-2.896-1.259-5.803-2.496-8.686-3.785c-1.937-0.866-3.627-1.077-5.557,0.382c-2.378,1.799-4.831,1.485-7.267-0.477
		c-1.137-0.916-2.857-1.465-4.343-1.532c-11.073-0.505-20.259,4.227-28.577,10.271c-0.332,2.385-0.041,4.712-1.033,6.159
		c-0.952,1.388-3.314,1.742-4.897,2.792c-0.743,0.494-1.156,1.527-1.643,2.361c-3.521,6.035-4.306,12.89-5.681,19.548
		c-0.222,1.072,0.358,2.521,0.997,3.523c2.543,3.988,2.488,4.8-0.88,8.553c-0.598,0.666-1.195,1.632-1.212,2.471
		c-0.098,4.983-0.03,9.971-0.005,14.956c0.01,2.047,0.439,3.615,2.422,5.013c3.018,2.127,3.348,4.834,0.92,7.707
		c-1.632,1.933-1.312,3.577-0.763,5.496c2.061,7.192,4.192,14.365,6.197,21.573c0.533,1.915,1.232,3.12,3.454,3.63
		c1.363,0.313,3.175,1.837,3.446,3.104c0.663,3.092,2.827,3.578,5.13,3.64c3.638,0.098,7.396,0.297,10.912-0.449
		c11.36-2.41,22.057-6.41,30.596-14.775c0.83-0.813,1.688-1.756,2.719-2.15C777.847,246.336,778.887,246.891,780.195,247.16z"/>
	<path d="M791.466,258.419c-0.396,0.032-0.793,0.065-1.189,0.099c0.98,3.067,1.649,6.284,3.025,9.163
		c1.473,3.082,3.472,5.468,7.451,6.484c2.633,0.672,4.853,1.782,7.816,1.318c14.613-2.291,29.273-4.281,43.908-6.434
		c14.964-2.202,29.921-4.448,44.873-6.725c3.354-0.511,7.892-5.726,7.635-9.114c-0.528-6.952-1.222-13.899-2.123-20.813
		c-0.618-4.741-4.028-6.835-8.877-5.901c-2.771,0.533-5.536,1.103-8.306,1.643c-29.029,5.664-58.061,11.319-87.084,17.013
		c-1.086,0.213-2.568,0.49-3.065,1.257C793.194,250.006,789.112,253.037,791.466,258.419z"/>
	<path d="M895.57,223.093c4.764-3.839,3.225-7.513,1.549-11c-3.806-7.918-7.63-15.836-11.77-23.581
		c-2.261-4.228-7.538-5.654-12.152-3.853c-18.875,7.37-37.743,14.756-56.607,22.152c-1.071,0.42-2.432,0.713-3.069,1.525
		c-2.806,3.575-5.402,7.315-8.062,11.005c-3.752,5.203-6.158,11.382-11.915,15.163c-1.201,0.789-1.519,3.99-1.121,5.837
		c0.377,1.748,2.493,2.469,4.557,1.913c0.637-0.171,1.322-0.152,1.975-0.279C831.396,235.639,863.839,229.296,895.57,223.093z"/>
	<path d="M717.091,262.064c1.842-2.632,1.767-4.809,0.959-7.408c-2.464-7.928-4.592-15.961-6.812-23.964
		c-0.696-2.511-4.697-5.985-7.418-5.997c-13.646-0.059-27.293-0.054-40.94-0.007c-2.56,0.009-7.645,3.746-8.135,6.024
		c-2.534,11.782-3.397,23.691-2.227,35.702c0.313,3.21,3.849,5.769,6.969,5.252C678.669,268.491,697.845,265.277,717.091,262.064z"
		/>
	<path d="M839.97,301.138c15.267-1.153,30.536-2.266,45.798-3.487c4.094-0.327,8.764,0.525,11.083-4.415
		c0.112-0.239,0.553-0.402,0.865-0.458c1.952-0.343,2.688-1.763,3.02-3.462c1.148-5.871,2.484-11.719,3.306-17.637
		c0.777-5.605-1.136-7.102-6.812-6.251c-15.299,2.295-30.607,4.526-45.911,6.792c-14.647,2.169-29.302,4.292-43.935,6.555
		c-4.801,0.742-5.021,1.777-2.132,5.717c3.959,5.396,9.342,8.87,15.123,11.945c2.316,1.232,4.253,3.081,7.266,1.808
		c0.865-0.366,2.746-0.02,3.22,0.658C833.326,302.429,836.784,301.072,839.97,301.138z"/>
	<path d="M654.219,281.089c1.747,5.778,3.719,12.63,5.908,19.41c1.073,3.323,5.981,6.074,9.359,5.414
		c8.643-1.69,17.273-3.451,25.896-5.242c1.886-0.392,3.627-0.693,4.741-2.953c1.338-2.716,3.98-3.241,6.86-1.867
		c0.826,0.395,1.95,0.832,2.719,0.58c9.219-3.017,18.042-6.824,25.277-13.55c0.461-0.428,1.006-1.076,1.016-1.632
		c0.082-4.558,0.047-9.117,0.047-13.842c-4.532-0.121-8.449-2.292-12.639-0.24c-0.786,0.385-2.439-0.135-3.226-0.794
		c-1.812-1.521-3.63-1.136-5.636-0.795c-16.72,2.843-33.433,5.731-50.187,8.357C660.088,274.604,656.192,275.247,654.219,281.089z"
		/>
	<path d="M807.908,190.838c0.076,0,0.152,0,0.229,0c0,2.825-0.091,5.653,0.021,8.473c0.164,4.108,3.214,6.19,6.976,4.727
		c19.026-7.4,38.043-14.824,57.04-22.297c4.466-1.757,5.311-4.838,1.911-8.329c-5.553-5.703-11.348-11.185-17.259-16.519
		c-3.49-3.149-9.868-3.404-13.95-1.068c-9.082,5.197-18.07,10.564-27.266,15.552c-5.937,3.221-7.948,8.148-7.712,14.479
		C807.961,187.514,807.908,189.177,807.908,190.838z"/>
	<path d="M683.506,221.605c6.652,0,13.306,0.055,19.958-0.023c3.251-0.038,5.645-2.023,5.703-4.898
		c0.111-5.478,0.363-11.001-0.199-16.428c-0.444-4.295-2.719-7.972-7.098-9.719c-6.166-2.46-12.345-4.892-18.532-7.297
		c-3.621-1.407-8.058-0.019-10.228,3.212c-5.96,8.873-10.668,18.374-14.1,28.496c-1.566,4.621-0.246,6.586,4.537,6.641
		C670.199,221.666,676.853,221.608,683.506,221.605z"/>
	<path d="M777.039,369.383c0-2,0.031-4-0.006-5.999c-0.092-4.939-2.94-7.624-7.833-6.902c-10.133,1.492-20.202,1.415-30.272-0.443
		c-2.453-0.452-4.988-1.184-7.406-0.954c-4.945,0.467-10.072,0.484-13.985,4.629c-3.266,3.46-3.332,5.369,0.813,7.634
		c16.159,8.83,33.414,13.949,51.835,14.943c4.113,0.223,6.755-2.324,6.846-6.409C777.079,373.716,777.039,371.549,777.039,369.383z"
		/>
	<path d="M835.175,304.609c-0.123,0.372-0.245,0.745-0.368,1.118c5.599,3.834,11.049,7.914,16.843,11.426
		c4.548,2.757,7.473,5.941,6.594,11.618c-0.439,2.836,1.974,5.124,3.723,5.035c4.725-0.241,10.27,2.891,14.123-2.666
		c0.613-0.883,2.356-0.956,3.546-1.474c1.001-0.437,2.419-0.716,2.863-1.508c4.546-8.105,9.018-16.255,13.302-24.502
		c1.122-2.16-0.147-3.479-2.557-3.495c-0.831-0.006-1.663,0.068-2.493,0.131c-13.937,1.034-27.875,2.059-41.81,3.119
		C844.348,303.762,839.763,304.207,835.175,304.609z"/>
	<path d="M800.375,356.1c-0.021,0.146-0.043,0.293-0.064,0.44c-1.822-0.088-3.646-0.186-5.469-0.26
		c-1.991-0.082-3.983-0.146-5.976-0.214c-6.396-0.221-8.805,2.164-8.817,8.74c-0.007,3.657-0.044,7.314,0.012,10.97
		c0.061,4.064,2.757,6.722,6.728,6.526c18.036-0.889,34.929-5.92,50.876-14.258c3.437-1.796,3.567-4.014,0.356-6.293
		c-1.146-0.813-2.66-1.338-4.068-1.519C822.769,358.79,811.569,357.463,800.375,356.1z"/>
	<path d="M817.612,135.971c0.013,0.159,0.025,0.319,0.039,0.479c-2.707,0.329-5.492,0.378-8.093,1.096
		c-1.479,0.409-2.684,1.881-3.967,2.929c-2.83,2.311-5.671,4.61-8.433,7.001c-2.476,2.144-2.624,4.616-0.914,7.338
		c2.81,4.471,5.543,8.994,8.162,13.58c1.638,2.868,3.604,3.799,6.449,2.188c10.542-5.965,21.041-12.005,31.494-18.125
		c2.658-1.556,2.816-3.979,0.145-5.303c-7.71-3.821-15.602-7.272-23.432-10.849C818.621,136.104,818.098,136.079,817.612,135.971z"
		/>
	<path d="M706.948,152.489c-0.431,0.219-1.704,0.564-2.577,1.353c-7.151,6.456-14.354,12.864-21.268,19.569
		c-2.987,2.898-2.173,5.506,1.754,7.107c5.85,2.386,11.742,4.667,17.642,6.931c4.688,1.799,6.428,0.698,7.717-4.246
		c1.632-6.257,2.936-12.692,5.462-18.588c1.605-3.747,0.476-6.819-0.303-9.94c-0.766-3.063-3.959-1.227-6.073-1.6
		C708.814,152.989,708.339,152.838,706.948,152.489z"/>
	<path d="M807.797,133.738c-1.343-0.658-1.888-1.072-2.494-1.2c-10.443-2.214-20.986-3.04-31.675-2.814
		c-4.467,0.095-6.729,2.326-8.501,5.359c2.31,4.684,6.153,6.596,10.521,7.865c1.738,0.506,3.428,1.294,5.018,2.174
		c6.147,3.4,11.703,2.576,16.892-2.028c2.484-2.204,5.137-4.218,7.651-6.389C806.024,136,806.647,135.073,807.797,133.738z"/>
	<path d="M681.413,336.843c7.338,9.318,15.418,16.383,24.271,22.624c0.379,0.268,0.933,0.524,1.354,0.459
		c3.997-0.629,8.076-0.846,10.918-4.567c1.977-2.59,1.944-5.458-1.025-6.945c-7.573-3.793-15.206-7.476-22.916-10.982
		C690.343,335.761,686.396,335.825,681.413,336.843z"/>
	<path d="M680.157,329.822c0.639-0.804,1.177-2.172,2.085-2.494c3.011-1.066,3.322-3.687,4.399-6.097
		c1.945-4.356,4.345-8.515,6.673-12.69c0.778-1.396,1.917-2.591,2.965-3.977c-0.692-0.251-1.024-0.504-1.298-0.452
		c-8.642,1.643-17.293,3.237-25.903,5.031c-2.549,0.53-3.703,3.335-2.388,5.841c2.004,3.814,4.475,7.384,6.482,11.196
		C674.695,329.07,676.901,330.158,680.157,329.822z"/>
	<path d="M762.034,135.018c-2.315-3.686-5.503-3.798-9.093-2.79c-2.709,0.76-5.584,1.049-8.182,2.065
		c-9.077,3.551-18.07,7.317-27.085,11.027c-2.01,0.826-2.735,2.487-1.987,4.416c0.604,1.557,1.717,2.567,3.838,2.377
		c2.538-0.228,4.683-0.826,6.828-2.336c7.412-5.215,15.433-9.363,24.688-9.482C755.688,140.236,759.331,139.294,762.034,135.018z"/>
	<path d="M875.644,337.14c-3.482,0-5.838,0.277-8.104-0.055c-5.789-0.847-8.94,2.86-11.903,6.713
		c-2.521,3.279-4.751,6.794-6.954,10.302c-0.745,1.187-1.353,2.654-1.425,4.025c-0.128,2.429,1.389,3.298,3.435,1.9
		C859.751,353.835,867.833,346.559,875.644,337.14z"/>
</g>
</svg>
